
<svg xmlns="http://www.w3.org/2000/svg" width="260" height="48" viewBox="0 0 260 48">
  <defs>
    <linearGradient id="g" x1="0" x2="1" y1="0" y2="1">
      <stop offset="0" stop-color="#16A34A"/>
      <stop offset="1" stop-color="#15803D"/>
    </linearGradient>
  </defs>
  <!-- icon -->
  <g transform="translate(0,0)">
    <path d="M24 4c-7 0-12 5-12 12 0 9 12 22 12 22s12-13 12-22c0-7-5-12-12-12z" fill="url(#g)"/>
    <rect x="14" y="20" rx="3.5" ry="3.5" width="20" height="14" fill="white" opacity="0.95"/>
    <path d="M18 22c0-2.8 2.2-5 6-5s6 2.2 6 5" stroke="#16A34A" stroke-width="2" fill="none"/>
    <circle cx="20.5" cy="24.5" r="1.2" fill="#16A34A"/><circle cx="27.5" cy="24.5" r="1.2" fill="#16A34A"/>
  </g>
  <!-- wordmark -->
  <g transform="translate(56,12)">
    <text x="0" y="16" font-family="Kanit, sans-serif" font-weight="700" font-size="20" fill="#111827">HaaNai</text>
    <text x="94" y="16" font-family="Kanit, sans-serif" font-weight="700" font-size="20" fill="#16A34A">Hang</text>
    <text x="0" y="34" font-family="Prompt, sans-serif" font-weight="500" font-size="12" fill="#4B5563">หาในห้าง</text>
  </g>
</svg>
